<svg width="142" height="32" viewBox="0 0 142 32" fill="none" xmlns="http://www.w3.org/2000/svg">
<path d="M16.2819 2.01389C5.91026 1.6988 5.06127 6.75772 5 16.0178C5.05251 25.2779 5.94527 30.2931 16.2819 29.9867C26.5398 30.2931 27.5026 25.2342 27.5638 16.0178C27.4938 6.81899 26.5398 1.6988 16.2819 2.01389ZM20.6844 24.2101H11.9319V8.4557H20.6844V24.2101Z" fill="#1C2228"/>
<path d="M42 22.7961V8.22754H44.6117V20.5925H50.6922V22.7961H42Z" fill="#1C2228"/>
<path d="M63.3428 22.7961H55.0587V8.22754H63.3428V10.4108H57.6704V14.1244H62.9755V16.3076H57.6704V20.5925H63.3428V22.7961Z" fill="#1C2228"/>
<path d="M74.5447 22.7961L70.5455 10.8597H70.4639C70.4785 11.1308 70.4989 11.5155 70.5251 12.014C70.5513 12.5095 70.5747 13.0488 70.598 13.6259C70.6184 14.2031 70.6271 14.7452 70.6271 15.2466V22.7961H68.2806V8.22754H71.9126L75.7486 19.6743H75.8302L79.8294 8.22754H83.4614V22.7961H80.972V15.1242C80.972 14.6607 80.9837 14.1535 81.0012 13.6026C81.0216 13.0517 81.042 12.5328 81.0624 12.0431C81.0828 11.5534 81.1003 11.1657 81.112 10.8801H81.0303L76.8679 22.7961H74.5418H74.5447Z" fill="#1C2228"/>
<path d="M102.09 15.4913C102.09 17.0012 101.843 18.3158 101.347 19.438C100.852 20.5602 100.091 21.4347 99.0705 22.0614C98.0503 22.6881 96.7707 23 95.2345 23C93.6984 23 92.4013 22.6881 91.3898 22.0614C90.3754 21.4347 89.6205 20.5573 89.1249 19.4293C88.6294 18.3012 88.3787 16.9808 88.3787 15.4709C88.3787 13.9609 88.6265 12.6667 89.1249 11.5416C89.6205 10.4194 90.3754 9.5478 91.3898 8.92985C92.4042 8.31189 93.6926 8 95.2579 8C96.8231 8 98.0707 8.30898 99.0822 8.92985C100.097 9.5478 100.852 10.4194 101.347 11.5416C101.843 12.6638 102.09 13.9784 102.09 15.4883V15.4913ZM91.1333 15.4913C91.1333 17.1382 91.4598 18.4295 92.1127 19.3681C92.7656 20.3066 93.8062 20.7759 95.2345 20.7759C96.6628 20.7759 97.7209 20.3066 98.368 19.3681C99.0151 18.4295 99.3387 17.1382 99.3387 15.4913C99.3387 13.8443 99.0181 12.5531 98.3797 11.6145C97.7413 10.6759 96.7007 10.2066 95.2579 10.2066C93.815 10.2066 92.786 10.6759 92.1244 11.6145C91.4656 12.5531 91.1333 13.8443 91.1333 15.4913Z" fill="#1C2228"/>
<path d="M119.414 22.7961H116.169L109.273 11.3698H109.191C109.232 11.9819 109.27 12.6378 109.302 13.3402C109.337 14.0398 109.36 14.7452 109.375 15.4506V22.7961H107.028V8.22754H110.252L117.128 19.5723H117.189C117.163 19.0272 117.134 18.4034 117.108 17.6951C117.082 16.9868 117.061 16.3018 117.047 15.6343V8.22754H119.414V22.7961Z" fill="#1C2228"/>
</svg>
